# Blender v2.76 (sub 0) OBJ File: ''
# www.blender.org
mtllib test03.mtl
o Cube
v 0.708105 -4.343135 3.447441
v 1.575488 3.350002 0.328871
v 0.765391 3.604653 -2.159986
v 1.596276 -4.337179 1.277440
v -1.985764 -4.589843 2.077135
v -0.341259 5.509524 0.786394
v -0.733956 5.764174 -1.702462
v -0.680189 -4.583888 -0.092866
v 2.015434 0.202873 2.190483
vn -0.925500 -0.365000 -0.101000
vn -0.434400 -0.163600 0.885700
vn -0.744100 0.641000 0.187900
vn 0.260200 0.662900 0.702000
vn 0.355900 -0.794800 0.491600
vn 0.223300 -0.832500 -0.507000
vn -0.804700 -0.177300 -0.566500
vn 0.802500 0.532900 -0.268100
vn -0.225700 0.514800 -0.827100
usemtl Material
s 1
f 2//1 3//2 4//3
f 8//4 7//5 6//6
f 6//6 2//1 9//7
f 2//1 6//6 7//5
f 3//2 7//5 8//4
f 5//8 1//9 4//3
f 4//3 1//9 9//7
f 9//7 2//1 4//3
f 5//8 8//4 6//6
f 9//7 1//9 6//6
f 5//8 6//6 1//9
f 3//2 2//1 7//5
f 4//3 3//2 8//4
f 8//4 5//8 4//3
